<svg id="visual" viewBox="0 0 900 450" width="900" height="450" xmlns="http://www.w3.org/2000/svg" xmlns:xlink="http://www.w3.org/1999/xlink" version="1.1"><g stroke-width="1" stroke-linejoin="bevel"><path d="M416 276L350 336L440 354Z" fill="#424b6f" stroke="#424b6f"></path><path d="M416 276L323 280L350 336Z" fill="#435896" stroke="#435896"></path><path d="M416 276L370 206L323 280Z" fill="#2674e9" stroke="#2674e9"></path><path d="M284 276L291 383L350 336Z" fill="#3c66bf" stroke="#3c66bf"></path><path d="M350 336L394 450L440 354Z" fill="#007bff" stroke="#007bff"></path><path d="M370 206L284 276L323 280Z" fill="#435896" stroke="#435896"></path><path d="M323 280L284 276L350 336Z" fill="#424b6f" stroke="#424b6f"></path><path d="M291 383L394 450L350 336Z" fill="#3d3e4a" stroke="#3d3e4a"></path><path d="M394 450L477 450L440 354Z" fill="#2674e9" stroke="#2674e9"></path><path d="M440 354L573 322L416 276Z" fill="#383838" stroke="#383838"></path><path d="M147 450L287 450L291 383Z" fill="#346dd4" stroke="#346dd4"></path><path d="M291 383L287 450L394 450Z" fill="#346dd4" stroke="#346dd4"></path><path d="M477 450L514 450L440 354Z" fill="#2674e9" stroke="#2674e9"></path><path d="M514 450L573 322L440 354Z" fill="#435896" stroke="#435896"></path><path d="M416 276L433 149L370 206Z" fill="#2674e9" stroke="#2674e9"></path><path d="M522 142L433 149L416 276Z" fill="#3c66bf" stroke="#3c66bf"></path><path d="M231 147L191 243L284 276Z" fill="#435182" stroke="#435182"></path><path d="M573 322L579 258L416 276Z" fill="#435896" stroke="#435896"></path><path d="M514 450L600 334L573 322Z" fill="#3d3e4a" stroke="#3d3e4a"></path><path d="M573 322L628 290L579 258Z" fill="#435896" stroke="#435896"></path><path d="M579 258L522 142L416 276Z" fill="#415faa" stroke="#415faa"></path><path d="M277 124L284 276L370 206Z" fill="#424b6f" stroke="#424b6f"></path><path d="M284 276L164 342L291 383Z" fill="#40445c" stroke="#40445c"></path><path d="M600 334L628 290L573 322Z" fill="#3d3e4a" stroke="#3d3e4a"></path><path d="M579 258L604 161L522 142Z" fill="#415faa" stroke="#415faa"></path><path d="M362 89L370 206L433 149Z" fill="#383838" stroke="#383838"></path><path d="M362 89L277 124L370 206Z" fill="#40445c" stroke="#40445c"></path><path d="M191 243L164 342L284 276Z" fill="#3c66bf" stroke="#3c66bf"></path><path d="M466 93L362 89L433 149Z" fill="#3d3e4a" stroke="#3d3e4a"></path><path d="M522 142L466 93L433 149Z" fill="#435182" stroke="#435182"></path><path d="M277 124L231 147L284 276Z" fill="#2674e9" stroke="#2674e9"></path><path d="M514 450L612 450L600 334Z" fill="#007bff" stroke="#007bff"></path><path d="M600 334L709 339L628 290Z" fill="#383838" stroke="#383838"></path><path d="M628 290L604 161L579 258Z" fill="#007bff" stroke="#007bff"></path><path d="M522 142L528 57L466 93Z" fill="#383838" stroke="#383838"></path><path d="M91 254L125 343L164 342Z" fill="#435182" stroke="#435182"></path><path d="M164 342L147 450L291 383Z" fill="#3c66bf" stroke="#3c66bf"></path><path d="M91 254L164 342L191 243Z" fill="#346dd4" stroke="#346dd4"></path><path d="M125 343L147 450L164 342Z" fill="#007bff" stroke="#007bff"></path><path d="M685 142L613 123L604 161Z" fill="#40445c" stroke="#40445c"></path><path d="M604 161L613 123L522 142Z" fill="#435896" stroke="#435896"></path><path d="M613 123L528 57L522 142Z" fill="#3c66bf" stroke="#3c66bf"></path><path d="M466 93L417 0L362 89Z" fill="#346dd4" stroke="#346dd4"></path><path d="M156 105L152 160L231 147Z" fill="#40445c" stroke="#40445c"></path><path d="M231 147L152 160L191 243Z" fill="#3d3e4a" stroke="#3d3e4a"></path><path d="M156 105L231 147L217 0Z" fill="#424b6f" stroke="#424b6f"></path><path d="M612 450L709 339L600 334Z" fill="#383838" stroke="#383838"></path><path d="M628 290L685 142L604 161Z" fill="#40445c" stroke="#40445c"></path><path d="M152 160L91 254L191 243Z" fill="#415faa" stroke="#415faa"></path><path d="M125 343L64 450L147 450Z" fill="#3d3e4a" stroke="#3d3e4a"></path><path d="M513 0L417 0L466 93Z" fill="#424b6f" stroke="#424b6f"></path><path d="M362 89L277 0L277 124Z" fill="#346dd4" stroke="#346dd4"></path><path d="M217 0L231 147L277 124Z" fill="#3c66bf" stroke="#3c66bf"></path><path d="M152 160L68 193L91 254Z" fill="#3d3e4a" stroke="#3d3e4a"></path><path d="M417 0L332 0L362 89Z" fill="#435182" stroke="#435182"></path><path d="M742 276L685 142L628 290Z" fill="#435896" stroke="#435896"></path><path d="M629 0L513 0L528 57Z" fill="#3c66bf" stroke="#3c66bf"></path><path d="M528 57L513 0L466 93Z" fill="#2674e9" stroke="#2674e9"></path><path d="M629 0L528 57L613 123Z" fill="#415faa" stroke="#415faa"></path><path d="M709 339L742 276L628 290Z" fill="#40445c" stroke="#40445c"></path><path d="M332 0L277 0L362 89Z" fill="#007bff" stroke="#007bff"></path><path d="M612 450L732 450L709 339Z" fill="#424b6f" stroke="#424b6f"></path><path d="M806 377L794 251L742 276Z" fill="#383838" stroke="#383838"></path><path d="M98 80L68 193L152 160Z" fill="#415faa" stroke="#415faa"></path><path d="M0 333L64 450L125 343Z" fill="#383838" stroke="#383838"></path><path d="M0 333L125 343L91 254Z" fill="#2674e9" stroke="#2674e9"></path><path d="M277 0L217 0L277 124Z" fill="#007bff" stroke="#007bff"></path><path d="M156 105L98 80L152 160Z" fill="#435896" stroke="#435896"></path><path d="M217 0L98 80L156 105Z" fill="#435182" stroke="#435182"></path><path d="M823 71L687 54L685 142Z" fill="#435182" stroke="#435182"></path><path d="M685 142L687 54L613 123Z" fill="#435182" stroke="#435182"></path><path d="M687 54L629 0L613 123Z" fill="#346dd4" stroke="#346dd4"></path><path d="M0 281L0 333L91 254Z" fill="#2674e9" stroke="#2674e9"></path><path d="M0 281L91 254L68 193Z" fill="#2674e9" stroke="#2674e9"></path><path d="M806 377L742 276L709 339Z" fill="#424b6f" stroke="#424b6f"></path><path d="M742 276L794 251L685 142Z" fill="#435896" stroke="#435896"></path><path d="M0 188L0 281L68 193Z" fill="#2674e9" stroke="#2674e9"></path><path d="M732 450L806 377L709 339Z" fill="#435182" stroke="#435182"></path><path d="M0 333L0 450L64 450Z" fill="#346dd4" stroke="#346dd4"></path><path d="M0 118L0 188L68 193Z" fill="#007bff" stroke="#007bff"></path><path d="M732 450L819 450L806 377Z" fill="#415faa" stroke="#415faa"></path><path d="M900 297L848 212L794 251Z" fill="#435182" stroke="#435182"></path><path d="M98 80L0 118L68 193Z" fill="#415faa" stroke="#415faa"></path><path d="M0 0L0 118L98 80Z" fill="#3d3e4a" stroke="#3d3e4a"></path><path d="M217 0L84 0L98 80Z" fill="#415faa" stroke="#415faa"></path><path d="M823 71L717 0L687 54Z" fill="#435896" stroke="#435896"></path><path d="M687 54L717 0L629 0Z" fill="#383838" stroke="#383838"></path><path d="M900 297L794 251L806 377Z" fill="#3d3e4a" stroke="#3d3e4a"></path><path d="M794 251L848 212L685 142Z" fill="#435182" stroke="#435182"></path><path d="M848 212L823 71L685 142Z" fill="#346dd4" stroke="#346dd4"></path><path d="M900 377L900 297L806 377Z" fill="#435896" stroke="#435896"></path><path d="M848 212L900 204L823 71Z" fill="#435182" stroke="#435182"></path><path d="M819 450L900 377L806 377Z" fill="#415faa" stroke="#415faa"></path><path d="M84 0L0 0L98 80Z" fill="#346dd4" stroke="#346dd4"></path><path d="M900 297L900 204L848 212Z" fill="#435896" stroke="#435896"></path><path d="M819 450L900 450L900 377Z" fill="#3c66bf" stroke="#3c66bf"></path><path d="M900 0L805 0L823 71Z" fill="#3c66bf" stroke="#3c66bf"></path><path d="M823 71L805 0L717 0Z" fill="#007bff" stroke="#007bff"></path><path d="M900 204L900 66L823 71Z" fill="#383838" stroke="#383838"></path><path d="M900 66L900 0L823 71Z" fill="#346dd4" stroke="#346dd4"></path></g></svg>